<svg width="56" height="55" viewBox="0 0 56 55" fill="none" xmlns="http://www.w3.org/2000/svg">
<g id="Frame">
<path id="Vector" d="M11.0036 39.6941C8.64266 37.188 7.375 34.375 7.375 29.8155C7.375 21.7958 13.0045 14.6064 21.1951 11.0532L23.2409 14.2102C15.5976 18.3458 14.1037 23.7098 13.5067 27.0923C14.7373 26.4559 16.3482 26.232 17.9275 26.3784C22.0625 26.7616 25.3215 30.1562 25.3215 34.375C25.3215 38.8048 21.7304 42.3958 17.3006 42.3958C14.8415 42.3958 12.4899 41.272 11.0036 39.6941ZM33.9203 39.6941C31.5594 37.188 30.2917 34.375 30.2917 29.8155C30.2917 21.7958 35.9211 14.6064 44.1118 11.0532L46.1576 14.2102C38.5142 18.3458 37.0205 23.7098 36.4233 27.0923C37.6539 26.4559 39.2649 26.232 40.8441 26.3784C44.9792 26.7616 48.2382 30.1562 48.2382 34.375C48.2382 38.8048 44.6471 42.3958 40.2173 42.3958C37.7581 42.3958 35.4067 41.272 33.9203 39.6941Z" fill="#9CA3AF"/>
</g>
</svg>
