<svg width="82" height="36" viewBox="0 0 82 36" fill="none" xmlns="http://www.w3.org/2000/svg">
<g id="Logo">
<g id="Group 2">
<g id="Group 1">
<path id="Vector 1" d="M16.5249 11.123C20.8665 16.106 16.2804 24.0749 13.4447 27.4365C13.4447 24.6187 14.0314 23.284 8.01771 15.8687C3.20676 9.93653 7.57768 2.81788 10.3645 8.70357e-05C9.30845 3.55941 14.0314 8.89839 16.5249 11.123Z" fill="url(#paint0_linear_1902_7103)"/>
<path id="Vector 2" d="M1.59963 24.8992C-2.28967 20.374 1.81863 13.1374 4.35894 10.0847C4.35894 12.6436 3.83337 13.8557 9.22058 20.5895C13.5304 25.9766 9.61477 32.4411 7.11826 35C8.0643 31.7677 3.83336 26.9193 1.59963 24.8992Z" fill="url(#paint1_linear_1902_7103)"/>
</g>
<g id="FIRE">
<path d="M37.7914 8V11.9984H29.3582V16.3179H35.6684V20.1996H29.3582V28.4883H24.3159V8H37.7914Z" fill="#374151"/>
<path d="M45.4838 8V28.4883H40.4415V8H45.4838Z" fill="#374151"/>
<path d="M59.6941 28.4883L55.3891 20.7541H54.1801V28.4883H49.1379V8H57.6006C59.2322 8 60.6181 8.28213 61.7582 8.84638C62.918 9.41064 63.783 10.1889 64.3531 11.1812C64.9231 12.1541 65.2082 13.2437 65.2082 14.45C65.2082 15.812 64.815 17.0281 64.0287 18.0982C63.2621 19.1684 62.1219 19.9272 60.6082 20.3747L65.3851 28.4883H59.6941ZM54.1801 17.2227H57.3057C58.2296 17.2227 58.9177 16.9989 59.3698 16.5514C59.8416 16.1039 60.0775 15.4715 60.0775 14.6543C60.0775 13.876 59.8416 13.2631 59.3698 12.8156C58.9177 12.3681 58.2296 12.1444 57.3057 12.1444H54.1801V17.2227Z" fill="#374151"/>
<path d="M73.4157 11.9984V16.1428H80.1682V19.9953H73.4157V24.4899H81.0528V28.4883H68.3734V8H81.0528V11.9984H73.4157Z" fill="#374151"/>
</g>
</g>
</g>
<defs>
<linearGradient id="paint0_linear_1902_7103" x1="17.5131" y1="6.0454" x2="2.89969" y2="20.0786" gradientUnits="userSpaceOnUse">
<stop stop-color="#FF6F61"/>
<stop offset="1" stop-color="#F15B7C"/>
</linearGradient>
<linearGradient id="paint1_linear_1902_7103" x1="0.714355" y1="29.5102" x2="13.9764" y2="16.947" gradientUnits="userSpaceOnUse">
<stop stop-color="#FF6F61"/>
<stop offset="1" stop-color="#F15B7C"/>
</linearGradient>
</defs>
</svg>
